{
  "accessors": [
    {
      "bufferView": 2,
      "componentType": 5126,
      "count": 15986,
      "max": [
        0.4401174783706665,
        0.42324262857437134,
        0.5766229629516602
      ],
      "min": [
        -0.4164775013923645,
        -0.4449399411678314,
        -0.584021806716919
      ],
      "type": "VEC3"
    },
    {
      "bufferView": 2,
      "byteOffset": 191832,
      "componentType": 5126,
      "count": 15986,
      "max": [
        0.9999865293502808,
        0.9999945163726807,
        0.9999923706054688
      ],
      "min": [
        -0.9999827146530151,
        -0.999996542930603,
        -0.9993095397949219
      ],
      "type": "VEC3"
    },
    {
      "bufferView": 3,
      "componentType": 5126,
      "count": 15986,
      "max": [
        0.9995822906494141,
        0.9993499517440796,
        0.9999274611473083,
        1.0
      ],
      "min": [
        -0.9999758005142212,
        -0.9999688267707825,
        -0.9999853372573853,
        1.0
      ],
      "type": "VEC4"
    },
    {
      "bufferView": 1,
      "componentType": 5126,
      "count": 15986,
      "max": [
        0.9974318742752075,
        0.9945129752159119
      ],
      "min": [
        0.001964128576219082,
        0.49193456768989563
      ],
      "type": "VEC2"
    },
    {
      "bufferView": 0,
      "componentType": 5125,
      "count": 81132,
      "type": "SCALAR"
    },
    {
      "bufferView": 2,
      "byteOffset": 383664,
      "componentType": 5126,
      "count": 642,
      "max": [
        1.0,
        1.0,
        1.0
      ],
      "min": [
        -1.0,
        -1.0,
        -1.0
      ],
      "type": "VEC3"
    },
    {
      "bufferView": 2,
      "byteOffset": 391368,
      "componentType": 5126,
      "count": 642,
      "max": [
        1.0,
        1.0,
        1.0
      ],
      "min": [
        -1.0,
        -1.0,
        -1.0
      ],
      "type": "VEC3"
    },
    {
      "bufferView": 1,
      "byteOffset": 127888,
      "componentType": 5126,
      "count": 642,
      "max": [
        0.9989451766014099,
        0.499546617269516
      ],
      "min": [
        0.0010547931306064129,
        0.0010547931306064129
      ],
      "type": "VEC2"
    },
    {
      "bufferView": 0,
      "byteOffset": 324528,
      "componentType": 5125,
      "count": 3600,
      "type": "SCALAR"
    }
  ],
  "asset": {
    "extras": {
      "author": "Azamuki (https://sketchfab.com/Azamuki)",
      "license": "CC-BY-4.0 (http://creativecommons.org/licenses/by/4.0/)",
      "source": "https://sketchfab.com/3d-models/heart-in-real-05db4fe42370427cbdc67486424aae31",
      "title": "Heart in Real"
    },
    "generator": "Sketchfab-12.66.0",
    "version": "2.0"
  },
  "bufferViews": [
    {
      "buffer": 0,
      "byteLength": 338928,
      "name": "floatBufferViews",
      "target": 34963
    },
    {
      "buffer": 0,
      "byteLength": 133024,
      "byteOffset": 338928,
      "byteStride": 8,
      "name": "floatBufferViews",
      "target": 34962
    },
    {
      "buffer": 0,
      "byteLength": 399072,
      "byteOffset": 471952,
      "byteStride": 12,
      "name": "floatBufferViews",
      "target": 34962
    },
    {
      "buffer": 0,
      "byteLength": 255776,
      "byteOffset": 871024,
      "byteStride": 16,
      "name": "floatBufferViews",
      "target": 34962
    }
  ],
  "buffers": [
    {
      "byteLength": 1126800,
      "uri": "scene.bin"
    }
  ],
  "extensionsUsed": [
    "KHR_materials_transmission"
  ],
  "images": [
    {
      "uri": "textures/Heart_baseColor.png"
    },
    {
      "uri": "textures/Heart_metallicRoughness.png"
    },
    {
      "uri": "textures/Heart_normal.png"
    },
    {
      "uri": "textures/Marble_baseColor.png"
    },
    {
      "uri": "textures/Marble_transmission.png"
    }
  ],
  "materials": [
    {
      "doubleSided": true,
      "name": "Heart",
      "normalTexture": {
        "index": 2
      },
      "pbrMetallicRoughness": {
        "baseColorTexture": {
          "index": 0
        },
        "metallicFactor": 0.0,
        "metallicRoughnessTexture": {
          "index": 1
        }
      }
    },
    {
      "alphaMode": "BLEND",
      "doubleSided": true,
      "extensions": {
        "KHR_materials_transmission": {
          "transmissionFactor": 1.0,
          "transmissionTexture": {
            "index": 4
          }
        }
      },
      "name": "Marble",
      "pbrMetallicRoughness": {
        "baseColorTexture": {
          "index": 3
        },
        "metallicFactor": 0.0,
        "metallicRoughnessTexture": {
          "index": 1
        }
      }
    }
  ],
  "meshes": [
    {
      "name": "Heart_Heart_0",
      "primitives": [
        {
          "attributes": {
            "NORMAL": 1,
            "POSITION": 0,
            "TANGENT": 2,
            "TEXCOORD_0": 3
          },
          "indices": 4,
          "material": 0,
          "mode": 4
        }
      ]
    },
    {
      "name": "Marble_Marble_0",
      "primitives": [
        {
          "attributes": {
            "NORMAL": 6,
            "POSITION": 5,
            "TEXCOORD_0": 7
          },
          "indices": 8,
          "material": 1,
          "mode": 4
        }
      ]
    }
  ],
  "nodes": [
    {
      "children": [
        1
      ],
      "matrix": [
        0.009962283074855804,
        0.0,
        0.0,
        0.0,
        0.0,
        2.2120712095076832e-18,
        -0.009962283074855804,
        0.0,
        0.0,
        0.009962283074855804,
        2.2120712095076832e-18,
        0.0,
        0.0,
        0.0,
        0.0,
        1.0
      ],
      "name": "Sketchfab_model"
    },
    {
      "children": [
        2
      ],
      "matrix": [
        1.0,
        0.0,
        0.0,
        0.0,
        0.0,
        0.0,
        1.0,
        0.0,
        0.0,
        -1.0,
        0.0,
        0.0,
        0.0,
        0.0,
        0.0,
        1.0
      ],
      "name": "heart_in_real_original.fbx"
    },
    {
      "children": [
        3,
        5,
        7,
        10,
        13,
        16,
        19,
        22
      ],
      "name": "RootNode"
    },
    {
      "children": [
        4
      ],
      "matrix": [
        132.7440185546875,
        0.0,
        0.0,
        0.0,
        0.0,
        -2.1626745688131563e-05,
        -132.74401855468574,
        0.0,
        0.0,
        132.74401855468574,
        -2.1626745688131563e-05,
        0.0,
        0.0,
        0.0,
        0.0,
        1.0
      ],
      "name": "Heart"
    },
    {
      "mesh": 0,
      "name": "Heart_Heart_0"
    },
    {
      "children": [
        6
      ],
      "matrix": [
        100.0,
        0.0,
        0.0,
        0.0,
        0.0,
        -1.629206793918314e-05,
        -99.99999999999868,
        0.0,
        0.0,
        99.99999999999868,
        -1.629206793918314e-05,
        0.0,
        0.0,
        0.0,
        0.0,
        1.0
      ],
      "name": "Marble"
    },
    {
      "mesh": 1,
      "name": "Marble_Marble_0"
    },
    {
      "children": [
        8
      ],
      "matrix": [
        100.0,
        0.0,
        0.0,
        0.0,
        0.0,
        99.99999999999972,
        -7.5497901264043296e-06,
        0.0,
        0.0,
        7.5497901264043296e-06,
        99.99999999999972,
        0.0,
        0.0,
        200.0,
        0.0,
        1.0
      ],
      "name": "Sun"
    },
    {
      "children": [
        9
      ],
      "matrix": [
        1.0,
        0.0,
        0.0,
        0.0,
        0.0,
        2.220446049250313e-16,
        1.0,
        0.0,
        0.0,
        -1.0,
        2.220446049250313e-16,
        0.0,
        0.0,
        0.0,
        0.0,
        1.0
      ],
      "name": "Object_8"
    },
    {
      "name": "Object_9"
    },
    {
      "children": [
        11
      ],
      "matrix": [
        -99.99999999999243,
        3.8941437731121185e-05,
        1.1746023567042827e-12,
        0.0,
        -3.894143773111928e-05,
        -99.9999999999865,
        -3.442155787070012e-05,
        0.0,
        -1.2229647167596404e-11,
        -3.442155787069797e-05,
        99.99999999999407,
        0.0,
        0.0,
        200.0,
        0.0,
        1.0
      ],
      "name": "Sun.001"
    },
    {
      "children": [
        12
      ],
      "matrix": [
        1.0,
        0.0,
        0.0,
        0.0,
        0.0,
        2.220446049250313e-16,
        1.0,
        0.0,
        0.0,
        -1.0,
        2.220446049250313e-16,
        0.0,
        0.0,
        0.0,
        0.0,
        1.0
      ],
      "name": "Object_11"
    },
    {
      "name": "Object_12"
    },
    {
      "children": [
        14
      ],
      "matrix": [
        70.7106765732234,
        -70.71067966408543,
        -9.500604392087543e-06,
        0.0,
        70.71067966408452,
        70.71067657322402,
        -1.1485070672279031e-05,
        0.0,
        1.4839113176459588e-05,
        1.4032292394403922e-06,
        99.99999999999889,
        0.0,
        0.0,
        200.0,
        0.0,
        1.0
      ],
      "name": "Sun.002"
    },
    {
      "children": [
        15
      ],
      "matrix": [
        1.0,
        0.0,
        0.0,
        0.0,
        0.0,
        2.220446049250313e-16,
        1.0,
        0.0,
        0.0,
        -1.0,
        2.220446049250313e-16,
        0.0,
        0.0,
        0.0,
        0.0,
        1.0
      ],
      "name": "Object_14"
    },
    {
      "name": "Object_15"
    },
    {
      "children": [
        17
      ],
      "matrix": [
        5.338507954432631e-06,
        -70.71068196802003,
        70.71068505888249,
        0.0,
        1.4132212157356329e-05,
        70.7106850588824,
        70.71068196801887,
        0.0,
        -99.99999999999888,
        6.2180876947426356e-06,
        1.3767877038439735e-05,
        0.0,
        0.0,
        200.0,
        0.0,
        1.0
      ],
      "name": "Sun.003"
    },
    {
      "children": [
        18
      ],
      "matrix": [
        1.0,
        0.0,
        0.0,
        0.0,
        0.0,
        2.220446049250313e-16,
        1.0,
        0.0,
        0.0,
        -1.0,
        2.220446049250313e-16,
        0.0,
        0.0,
        0.0,
        0.0,
        1.0
      ],
      "name": "Object_17"
    },
    {
      "name": "Object_18"
    },
    {
      "children": [
        20
      ],
      "matrix": [
        -70.71068500259227,
        -70.71067123471492,
        1.5099579909783704e-05,
        0.0,
        -70.71067123471381,
        70.71068500259388,
        1.2661479343901135e-05,
        0.0,
        -1.9630033419039376e-05,
        -1.723995532295832e-06,
        -99.99999999999804,
        0.0,
        0.0,
        200.0,
        0.0,
        1.0
      ],
      "name": "Sun.004"
    },
    {
      "children": [
        21
      ],
      "matrix": [
        1.0,
        0.0,
        0.0,
        0.0,
        0.0,
        2.220446049250313e-16,
        1.0,
        0.0,
        0.0,
        -1.0,
        2.220446049250313e-16,
        0.0,
        0.0,
        0.0,
        0.0,
        1.0
      ],
      "name": "Object_20"
    },
    {
      "name": "Object_21"
    },
    {
      "children": [
        23
      ],
      "matrix": [
        -3.090861766530395e-06,
        -70.71067235853859,
        -70.71068387877038,
        0.0,
        -1.2802767124231451e-06,
        70.71068387877044,
        -70.71067235853859,
        0.0,
        99.99999999999994,
        -1.2802767124231451e-06,
        -3.090861766530395e-06,
        0.0,
        0.0,
        200.0,
        0.0,
        1.0
      ],
      "name": "Sun.005"
    },
    {
      "children": [
        24
      ],
      "matrix": [
        1.0,
        0.0,
        0.0,
        0.0,
        0.0,
        2.220446049250313e-16,
        1.0,
        0.0,
        0.0,
        -1.0,
        2.220446049250313e-16,
        0.0,
        0.0,
        0.0,
        0.0,
        1.0
      ],
      "name": "Object_23"
    },
    {
      "name": "Object_24"
    }
  ],
  "samplers": [
    {
      "magFilter": 9729,
      "minFilter": 9987,
      "wrapS": 10497,
      "wrapT": 10497
    }
  ],
  "scene": 0,
  "scenes": [
    {
      "name": "Sketchfab_Scene",
      "nodes": [
        0
      ]
    }
  ],
  "textures": [
    {
      "sampler": 0,
      "source": 0
    },
    {
      "sampler": 0,
      "source": 1
    },
    {
      "sampler": 0,
      "source": 2
    },
    {
      "sampler": 0,
      "source": 3
    },
    {
      "sampler": 0,
      "source": 4
    }
  ]
}
